<!-- icon666.com - MILLIONS vector ICONS FREE --><svg version="1.1" id="Capa_1" xmlns="http://www.w3.org/2000/svg" xmlns:xlink="http://www.w3.org/1999/xlink" x="0px" y="0px" viewBox="0 0 512 512" style="enable-background:new 0 0 512 512;" xml:space="preserve"><path style="fill:#AEADB3;" d="M512,256c0-8.401-6.599-15-15-15h-15.601c-0.899-11.4-2.399-23.101-5.099-34.801 C491,182.5,491.901,152.8,477.8,128.5c-4.2-7.2-13.2-9.6-20.4-5.4l-13.5,7.798C437.3,121,429.8,111.7,422,103.001 c0.901-27.601-14.2-54.701-38.5-68.8c-7.2-4.2-16.5-1.8-20.4,5.4l-7.8,13.5c-10.8-5.101-21.599-9.3-32.999-12.9 C309.401,15.601,284.2,0,256,0c-8.401,0-15,6.599-15,15v15.601C229.6,31.5,217.899,33,206.201,35.7 C182.5,21,152.8,20.099,128.5,34.2c-7.2,4.2-9.6,13.2-5.4,20.4l7.8,13.5c-9.9,6.6-19.2,14.1-27.899,21.9 c-28.5-1.5-54.701,14.2-68.8,38.5c-4.2,7.2-1.8,16.199,5.4,20.4l13.5,7.8c-5.101,10.8-9.3,21.599-12.9,32.999 C15.601,202.599,0,227.8,0,256c0,8.399,6.599,15,15,15h15.601C31.5,282.4,33,294.099,35.7,305.799C21,329.5,20.099,359.2,34.2,383.5 c4.2,7.2,13.2,9.6,20.4,5.4l13.5-7.8c6.6,9.9,15.1,19.2,22.9,27.899c-0.901,27.599,13.2,54.701,37.5,68.8 c7.2,4.2,16.199,1.8,20.4-5.4l7.8-13.5c10.8,5.099,21.599,9.3,32.999,12.9C202.599,496.399,227.8,512,256,512 c8.401,0,15-6.601,15-15v-15.601c11.4-0.899,23.101-2.401,34.799-5.099C329.5,491,359.2,491.899,383.5,477.8 c7.2-4.2,9.6-13.2,5.4-20.4l-7.8-13.5c9.9-6.6,19.2-14.1,27.899-21.9c28.2,0.899,54.701-14.2,68.8-38.5c4.2-7.2,1.8-16.201-5.4-20.4 l-13.5-7.8c5.101-10.8,9.3-21.601,12.9-33.001C496.399,309.399,512,284.2,512,256z M256,301c-24.901,0-45-20.101-45-45 c0-24.901,20.099-45,45-45s45,20.099,45,45C301,280.899,280.901,301,256,301z"></path><path style="fill:#8B8892;" d="M471.799,322.299c-3.6,11.4-7.798,22.202-12.9,33.001l13.5,7.8c7.2,4.199,9.6,13.2,5.4,20.4 c-14.099,24.3-40.6,39.399-68.8,38.5c-8.699,7.8-17.999,15.3-27.9,21.899l7.8,13.5c4.2,7.2,1.8,16.199-5.4,20.4 c-24.3,14.099-54,13.2-77.701-1.5c-11.699,2.699-23.399,4.2-34.799,5.099V497c0,8.399-6.599,15-15,15V301c24.901,0,45-20.101,45-45 c0-24.901-20.099-45-45-45V0c28.2,0,53.401,15.601,66.301,40.201c11.4,3.6,22.2,7.798,32.999,12.9l7.8-13.5 c3.9-7.2,13.2-9.6,20.4-5.4c24.3,14.099,39.401,41.199,38.5,68.8c7.8,8.699,15.3,17.999,21.899,27.898l13.5-7.798 c7.2-4.2,16.199-1.8,20.4,5.4c14.101,24.3,13.2,54-1.5,77.699c2.701,11.7,4.2,23.401,5.099,34.801H497c8.401,0,15,6.599,15,15 C512,284.2,496.399,309.399,471.799,322.299z"></path><path style="fill:#C9C7CE;" d="M256,121c-74.399,0-135,60.599-135,135c0,74.399,60.601,135,135,135s135-60.601,135-135 C391,181.599,330.399,121,256,121z M256,361c-57.9,0-105-47.1-105-105s47.1-105,105-105s105,47.1,105,105S313.9,361,256,361z"></path><path style="fill:#AEADB3;" d="M391,256c0,74.399-60.601,135-135,135v-30c57.9,0,105-47.1,105-105s-47.1-105-105-105v-30 C330.399,121,391,181.599,391,256z"></path></svg>